<svg width="1008" height="255" viewBox="0 0 1008 255" fill="none" xmlns="http://www.w3.org/2000/svg">
<g filter="url(#filter0_d_814_19444)">
<mask id="path-1-inside-1_814_19444" fill="white">
<path fill-rule="evenodd" clip-rule="evenodd" d="M4 26.1099C4.49065 25.9258 4.97618 25.7312 5.45632 25.5265C7.18641 25.3023 8.72843 24.4787 9.86725 23.2708C17.95 18.4019 23.9507 10.4279 26.218 1H1004V246.871H26.0804C23.1615 235.536 14.827 226.376 4 222.314V211.445C4.16502 211.456 4.33154 211.462 4.49936 211.462C8.57308 211.462 11.8755 208.16 11.8755 204.086C11.8755 200.012 8.57308 196.71 4.49936 196.71C4.33154 196.71 4.16502 196.715 4 196.726V184.895C4.16502 184.906 4.33154 184.912 4.49936 184.912C8.57308 184.912 11.8755 181.61 11.8755 177.536C11.8755 173.462 8.57308 170.16 4.49936 170.16C4.33154 170.16 4.16502 170.165 4 170.176V158.341C4.16502 158.352 4.33154 158.358 4.49936 158.358C8.57308 158.358 11.8755 155.056 11.8755 150.982C11.8755 146.908 8.57308 143.606 4.49936 143.606C4.33154 143.606 4.16502 143.611 4 143.622V131.79C4.16502 131.801 4.33154 131.806 4.49936 131.806C8.57308 131.806 11.8755 128.504 11.8755 124.43C11.8755 120.357 8.57308 117.054 4.49936 117.054C4.33154 117.054 4.16502 117.06 4 117.071V105.232C4.16502 105.243 4.33154 105.249 4.49936 105.249C8.57308 105.249 11.8755 101.946 11.8755 97.8727C11.8755 93.799 8.57308 90.4966 4.49936 90.4966C4.33154 90.4966 4.16502 90.5022 4 90.5132V78.6808C4.16502 78.6918 4.33154 78.6974 4.49936 78.6974C8.57308 78.6974 11.8755 75.395 11.8755 71.3213C11.8755 67.2476 8.57308 63.9452 4.49936 63.9452C4.33154 63.9452 4.16502 63.9508 4 63.9618V52.1227C4.16502 52.1338 4.33154 52.1394 4.49936 52.1394C8.57308 52.1394 11.8755 48.837 11.8755 44.7632C11.8755 40.6895 8.57308 37.3871 4.49936 37.3871C4.33154 37.3871 4.16502 37.3927 4 37.4038V26.1099Z"/>
</mask>
<path fill-rule="evenodd" clip-rule="evenodd" d="M4 26.1099C4.49065 25.9258 4.97618 25.7312 5.45632 25.5265C7.18641 25.3023 8.72843 24.4787 9.86725 23.2708C17.95 18.4019 23.9507 10.4279 26.218 1H1004V246.871H26.0804C23.1615 235.536 14.827 226.376 4 222.314V211.445C4.16502 211.456 4.33154 211.462 4.49936 211.462C8.57308 211.462 11.8755 208.16 11.8755 204.086C11.8755 200.012 8.57308 196.71 4.49936 196.71C4.33154 196.71 4.16502 196.715 4 196.726V184.895C4.16502 184.906 4.33154 184.912 4.49936 184.912C8.57308 184.912 11.8755 181.61 11.8755 177.536C11.8755 173.462 8.57308 170.16 4.49936 170.16C4.33154 170.16 4.16502 170.165 4 170.176V158.341C4.16502 158.352 4.33154 158.358 4.49936 158.358C8.57308 158.358 11.8755 155.056 11.8755 150.982C11.8755 146.908 8.57308 143.606 4.49936 143.606C4.33154 143.606 4.16502 143.611 4 143.622V131.79C4.16502 131.801 4.33154 131.806 4.49936 131.806C8.57308 131.806 11.8755 128.504 11.8755 124.43C11.8755 120.357 8.57308 117.054 4.49936 117.054C4.33154 117.054 4.16502 117.06 4 117.071V105.232C4.16502 105.243 4.33154 105.249 4.49936 105.249C8.57308 105.249 11.8755 101.946 11.8755 97.8727C11.8755 93.799 8.57308 90.4966 4.49936 90.4966C4.33154 90.4966 4.16502 90.5022 4 90.5132V78.6808C4.16502 78.6918 4.33154 78.6974 4.49936 78.6974C8.57308 78.6974 11.8755 75.395 11.8755 71.3213C11.8755 67.2476 8.57308 63.9452 4.49936 63.9452C4.33154 63.9452 4.16502 63.9508 4 63.9618V52.1227C4.16502 52.1338 4.33154 52.1394 4.49936 52.1394C8.57308 52.1394 11.8755 48.837 11.8755 44.7632C11.8755 40.6895 8.57308 37.3871 4.49936 37.3871C4.33154 37.3871 4.16502 37.3927 4 37.4038V26.1099Z" fill="white"/>
<path d="M5.45632 25.5265L4.42853 17.5928L3.33363 17.7346L2.31808 18.1677L5.45632 25.5265ZM4 26.1099L1.18962 18.6198L-4 20.567V26.1099H4ZM9.86725 23.2708L5.73932 16.4181L4.79922 16.9844L4.04636 17.7829L9.86725 23.2708ZM26.218 1V-7H19.9139L18.4398 -0.870573L26.218 1ZM1004 1H1012V-7H1004V1ZM1004 246.871V254.871H1012V246.871H1004ZM26.0804 246.871L18.3332 248.866L19.8796 254.871H26.0804V246.871ZM4 222.314H-4V227.857L1.18964 229.804L4 222.314ZM4 211.445L4.53362 203.463L-4 202.893V211.445H4ZM4 196.726H-4V205.279L4.53362 204.709L4 196.726ZM4 184.895L4.53362 176.913L-4 176.343V184.895H4ZM4 170.176H-4V178.729L4.53362 178.158L4 170.176ZM4 158.341L4.53362 150.359L-4 149.789V158.341H4ZM4 143.622H-4V152.175L4.53362 151.605L4 143.622ZM4 131.79L4.53362 123.808L-4 123.237V131.79H4ZM4 117.071H-4V125.624L4.53362 125.053L4 117.071ZM4 105.232L4.53362 97.25L-4 96.6795V105.232H4ZM4 90.5132H-4V99.0659L4.53362 98.4954L4 90.5132ZM4 78.6808L4.53362 70.6986L-4 70.1281V78.6808H4ZM4 63.9618H-4V72.5145L4.53362 71.944L4 63.9618ZM4 52.1227L4.53362 44.1406L-4 43.5701V52.1227H4ZM4 37.4038H-4V45.9564L4.53362 45.3859L4 37.4038ZM2.31808 18.1677C1.94597 18.3264 1.56975 18.4771 1.18962 18.6198L6.81038 33.6C7.41155 33.3744 8.00639 33.1361 8.59456 32.8852L2.31808 18.1677ZM4.04636 17.7829C4.13159 17.6925 4.2648 17.614 4.42853 17.5928L6.48411 33.4602C10.108 32.9907 13.3253 31.265 15.6881 28.7587L4.04636 17.7829ZM18.4398 -0.870573C16.6844 6.42885 12.0284 12.6297 5.73932 16.4181L13.9952 30.1236C23.8716 24.1742 31.2171 14.4269 33.9963 2.87057L18.4398 -0.870573ZM26.218 9H1004V-7H26.218V9ZM996 1V246.871H1012V1H996ZM1004 238.871H26.0804V254.871H1004V238.871ZM1.18964 229.804C9.59592 232.958 16.0711 240.082 18.3332 248.866L33.8277 244.876C30.2519 230.991 20.0581 219.794 6.81036 214.824L1.18964 229.804ZM12 222.314V211.445H-4V222.314H12ZM3.46638 219.428C3.80903 219.45 4.15352 219.462 4.49936 219.462V203.462C4.50956 203.462 4.52102 203.462 4.53362 203.463L3.46638 219.428ZM4.49936 219.462C12.9914 219.462 19.8755 212.578 19.8755 204.086H3.87548C3.87548 203.741 4.15481 203.462 4.49936 203.462V219.462ZM19.8755 204.086C19.8755 195.594 12.9914 188.71 4.49936 188.71V204.71C4.15481 204.71 3.87548 204.43 3.87548 204.086H19.8755ZM4.49936 188.71C4.15352 188.71 3.80903 188.721 3.46638 188.744L4.53362 204.709C4.52102 204.709 4.50956 204.71 4.49936 204.71V188.71ZM12 196.726V184.895H-4V196.726H12ZM4.49936 176.912C4.50956 176.912 4.52102 176.912 4.53362 176.913L3.46638 192.877C3.80903 192.9 4.15352 192.912 4.49936 192.912V176.912ZM3.87548 177.536C3.87548 177.191 4.15481 176.912 4.49936 176.912V192.912C12.9914 192.912 19.8755 186.028 19.8755 177.536H3.87548ZM4.49936 178.16C4.15481 178.16 3.87548 177.88 3.87548 177.536H19.8755C19.8755 169.044 12.9914 162.16 4.49936 162.16V178.16ZM4.53362 178.158C4.52102 178.159 4.50956 178.16 4.49936 178.16V162.16C4.15352 162.16 3.80903 162.171 3.46638 162.194L4.53362 178.158ZM12 170.176V158.341H-4V170.176H12ZM3.46638 166.324C3.80903 166.347 4.15352 166.358 4.49936 166.358V150.358C4.50956 150.358 4.52102 150.358 4.53362 150.359L3.46638 166.324ZM4.49936 166.358C12.9914 166.358 19.8755 159.474 19.8755 150.982H3.87548C3.87548 150.637 4.15481 150.358 4.49936 150.358V166.358ZM19.8755 150.982C19.8755 142.49 12.9914 135.606 4.49936 135.606V151.606C4.15481 151.606 3.87548 151.327 3.87548 150.982H19.8755ZM4.49936 135.606C4.15352 135.606 3.80903 135.617 3.46638 135.64L4.53362 151.605C4.52102 151.605 4.50956 151.606 4.49936 151.606V135.606ZM12 143.622V131.79H-4V143.622H12ZM4.49936 123.806C4.50956 123.806 4.52102 123.807 4.53362 123.808L3.46638 139.772C3.80903 139.795 4.15352 139.806 4.49936 139.806V123.806ZM3.87548 124.43C3.87548 124.086 4.15481 123.806 4.49936 123.806V139.806C12.9914 139.806 19.8755 132.922 19.8755 124.43H3.87548ZM4.49936 125.054C4.15481 125.054 3.87548 124.775 3.87548 124.43H19.8755C19.8755 115.938 12.9914 109.054 4.49936 109.054V125.054ZM4.53362 125.053C4.52126 125.054 4.5098 125.054 4.49936 125.054V109.054C4.15327 109.054 3.80879 109.066 3.46638 109.089L4.53362 125.053ZM12 117.071V105.232H-4V117.071H12ZM3.46638 113.214C3.80879 113.237 4.15327 113.249 4.49936 113.249V97.2488C4.5098 97.2488 4.52126 97.2492 4.53362 97.25L3.46638 113.214ZM4.49936 113.249C12.9914 113.249 19.8755 106.365 19.8755 97.8727H3.87548C3.87548 97.5282 4.15481 97.2488 4.49936 97.2488V113.249ZM19.8755 97.8727C19.8755 89.3807 12.9914 82.4966 4.49936 82.4966V98.4966C4.15481 98.4966 3.87548 98.2173 3.87548 97.8727H19.8755ZM4.49936 82.4966C4.15327 82.4966 3.80879 82.5081 3.46638 82.531L4.53362 98.4954C4.52126 98.4962 4.5098 98.4966 4.49936 98.4966V82.4966ZM12 90.5132V78.6808H-4V90.5132H12ZM4.49936 70.6974C4.5098 70.6974 4.52126 70.6978 4.53362 70.6986L3.46638 86.663C3.80879 86.6859 4.15327 86.6974 4.49936 86.6974V70.6974ZM3.87548 71.3213C3.87548 70.9767 4.1548 70.6974 4.49936 70.6974V86.6974C12.9914 86.6974 19.8755 79.8133 19.8755 71.3213H3.87548ZM4.49936 71.9452C4.1548 71.9452 3.87548 71.6659 3.87548 71.3213H19.8755C19.8755 62.8293 12.9914 55.9452 4.49936 55.9452V71.9452ZM4.53362 71.944C4.52114 71.9448 4.50968 71.9452 4.49936 71.9452V55.9452C4.15339 55.9452 3.80891 55.9567 3.46638 55.9796L4.53362 71.944ZM12 63.9618V52.1227H-4V63.9618H12ZM3.46638 60.1049C3.80891 60.1278 4.15339 60.1394 4.49936 60.1394V44.1394C4.50968 44.1394 4.52114 44.1397 4.53362 44.1406L3.46638 60.1049ZM4.49936 60.1394C12.9914 60.1394 19.8755 53.2552 19.8755 44.7632H3.87548C3.87548 44.4187 4.1548 44.1394 4.49936 44.1394V60.1394ZM19.8755 44.7632C19.8755 36.2712 12.9914 29.3871 4.49936 29.3871V45.3871C4.1548 45.3871 3.87548 45.1078 3.87548 44.7632H19.8755ZM4.49936 29.3871C4.15339 29.3871 3.80891 29.3987 3.46638 29.4216L4.53362 45.3859C4.52114 45.3868 4.50968 45.3871 4.49936 45.3871V29.3871ZM12 37.4038V26.1099H-4V37.4038H12Z" fill="#EEEEEE" mask="url(#path-1-inside-1_814_19444)"/>
</g>
<path d="M71 0V5.14583H77V0H71ZM71 15.4375V25.7292H77V15.4375H71ZM71 36.0208V46.3125H77V36.0208H71ZM71 56.6042V66.8958H77V56.6042H71ZM71 77.1875V87.4792H77V77.1875H71ZM71 97.7708V108.062H77V97.7708H71ZM71 118.354V128.646H77V118.354H71ZM71 138.938V149.229H77V138.938H71ZM71 159.521V169.813H77V159.521H71ZM71 180.104V190.396H77V180.104H71ZM71 200.688V210.979H77V200.688H71ZM71 221.271V231.563H77V221.271H71ZM71 241.854V247H77V241.854H71ZM68 0V5.14583H80V0H68ZM68 15.4375V25.7292H80V15.4375H68ZM68 36.0208V46.3125H80V36.0208H68ZM68 56.6042V66.8958H80V56.6042H68ZM68 77.1875V87.4792H80V77.1875H68ZM68 97.7708V108.062H80V97.7708H68ZM68 118.354V128.646H80V118.354H68ZM68 138.938V149.229H80V138.938H68ZM68 159.521V169.813H80V159.521H68ZM68 180.104V190.396H80V180.104H68ZM68 200.688V210.979H80V200.688H68ZM68 221.271V231.563H80V221.271H68ZM68 241.854V247H80V241.854H68Z" fill="#EEEEEE" mask="url(#path-3-inside-2_814_19444)"/>
<defs>
<filter id="filter0_d_814_19444" x="0" y="1" width="1008" height="253.871" filterUnits="userSpaceOnUse" color-interpolation-filters="sRGB">
<feFlood flood-opacity="0" result="BackgroundImageFix"/>
<feColorMatrix in="SourceAlpha" type="matrix" values="0 0 0 0 0 0 0 0 0 0 0 0 0 0 0 0 0 0 127 0" result="hardAlpha"/>
<feOffset dy="4"/>
<feGaussianBlur stdDeviation="2"/>
<feComposite in2="hardAlpha" operator="out"/>
<feColorMatrix type="matrix" values="0 0 0 0 0 0 0 0 0 0 0 0 0 0 0 0 0 0 0.25 0"/>
<feBlend mode="normal" in2="BackgroundImageFix" result="effect1_dropShadow_814_19444"/>
<feBlend mode="normal" in="SourceGraphic" in2="effect1_dropShadow_814_19444" result="shape"/>
</filter>
</defs>
</svg>
