<svg width="494" height="130" viewBox="0 0 494 130" fill="none" xmlns="http://www.w3.org/2000/svg">
<g filter="url(#filter0_d_802_19197)">
<mask id="path-1-inside-1_802_19197" fill="white">
<path fill-rule="evenodd" clip-rule="evenodd" d="M4 12.2599C4.24188 12.1678 4.48118 12.0702 4.71775 11.9675C5.5326 11.8556 6.25946 11.4619 6.80034 10.886C10.6928 8.51079 13.5832 4.61169 14.6735 0H484V120H14.6066C13.2043 114.466 9.20049 109.994 4 108.013V102.712C4.07914 102.717 4.15898 102.72 4.23946 102.72C6.19484 102.72 7.78 101.108 7.78 99.12C7.78 97.1318 6.19484 95.52 4.23946 95.52C4.15898 95.52 4.07914 95.5228 4 95.5281V89.7522C4.07914 89.7576 4.15898 89.7603 4.23946 89.7603C6.19484 89.7603 7.78 88.1485 7.78 86.1603C7.78 84.1721 6.19484 82.5603 4.23946 82.5603C4.15898 82.5603 4.07914 82.563 4 82.5684V76.792C4.07914 76.7974 4.15898 76.8001 4.23946 76.8001C6.19484 76.8001 7.78 75.1883 7.78 73.2001C7.78 71.2119 6.19484 69.6001 4.23946 69.6001C4.15898 69.6001 4.07914 69.6028 4 69.6082V63.832C4.07914 63.8374 4.15898 63.8401 4.23946 63.8401C6.19484 63.8401 7.78 62.2284 7.78 60.2401C7.78 58.2519 6.19484 56.6401 4.23946 56.6401C4.15898 56.6401 4.07914 56.6429 4 56.6482V50.8721C4.07914 50.8774 4.15898 50.8802 4.23946 50.8802C6.19484 50.8802 7.78 49.2684 7.78 47.2802C7.78 45.292 6.19484 43.6802 4.23946 43.6802C4.15898 43.6802 4.07914 43.6829 4 43.6883V37.9121C4.07914 37.9175 4.15898 37.9202 4.23946 37.9202C6.19484 37.9202 7.78 36.3084 7.78 34.3202C7.78 32.332 6.19484 30.7202 4.23946 30.7202C4.15898 30.7202 4.07914 30.7229 4 30.7283V24.9522C4.07914 24.9575 4.15898 24.9603 4.23946 24.9603C6.19484 24.9603 7.78 23.3485 7.78 21.3603C7.78 19.372 6.19484 17.7603 4.23946 17.7603C4.15898 17.7603 4.07914 17.763 4 17.7684V12.2599Z"/>
</mask>
<path fill-rule="evenodd" clip-rule="evenodd" d="M4 12.2599C4.24188 12.1678 4.48118 12.0702 4.71775 11.9675C5.5326 11.8556 6.25946 11.4619 6.80034 10.886C10.6928 8.51079 13.5832 4.61169 14.6735 0H484V120H14.6066C13.2043 114.466 9.20049 109.994 4 108.013V102.712C4.07914 102.717 4.15898 102.72 4.23946 102.72C6.19484 102.72 7.78 101.108 7.78 99.12C7.78 97.1318 6.19484 95.52 4.23946 95.52C4.15898 95.52 4.07914 95.5228 4 95.5281V89.7522C4.07914 89.7576 4.15898 89.7603 4.23946 89.7603C6.19484 89.7603 7.78 88.1485 7.78 86.1603C7.78 84.1721 6.19484 82.5603 4.23946 82.5603C4.15898 82.5603 4.07914 82.563 4 82.5684V76.792C4.07914 76.7974 4.15898 76.8001 4.23946 76.8001C6.19484 76.8001 7.78 75.1883 7.78 73.2001C7.78 71.2119 6.19484 69.6001 4.23946 69.6001C4.15898 69.6001 4.07914 69.6028 4 69.6082V63.832C4.07914 63.8374 4.15898 63.8401 4.23946 63.8401C6.19484 63.8401 7.78 62.2284 7.78 60.2401C7.78 58.2519 6.19484 56.6401 4.23946 56.6401C4.15898 56.6401 4.07914 56.6429 4 56.6482V50.8721C4.07914 50.8774 4.15898 50.8802 4.23946 50.8802C6.19484 50.8802 7.78 49.2684 7.78 47.2802C7.78 45.292 6.19484 43.6802 4.23946 43.6802C4.15898 43.6802 4.07914 43.6829 4 43.6883V37.9121C4.07914 37.9175 4.15898 37.9202 4.23946 37.9202C6.19484 37.9202 7.78 36.3084 7.78 34.3202C7.78 32.332 6.19484 30.7202 4.23946 30.7202C4.15898 30.7202 4.07914 30.7229 4 30.7283V24.9522C4.07914 24.9575 4.15898 24.9603 4.23946 24.9603C6.19484 24.9603 7.78 23.3485 7.78 21.3603C7.78 19.372 6.19484 17.7603 4.23946 17.7603C4.15898 17.7603 4.07914 17.763 4 17.7684V12.2599Z" fill="white"/>
<path d="M4.71775 11.9675L3.62954 4.04183L2.53945 4.19151L1.53025 4.62991L4.71775 11.9675ZM4 12.2599L1.15242 4.78385L-4 6.74637V12.2599H4ZM6.80034 10.886L2.63332 4.05692L1.70969 4.6205L0.968962 5.40919L6.80034 10.886ZM14.6735 0V-8H8.34437L6.88816 -1.84065L14.6735 0ZM484 0H492V-8H484V0ZM484 120V128H492V120H484ZM14.6066 120L6.85169 121.965L8.38091 128H14.6066V120ZM4 108.013H-4V113.527L1.15243 115.489L4 108.013ZM4 102.712L4.54173 94.7303L-4 94.1505V102.712H4ZM4 95.5281H-4V104.09L4.54173 103.51L4 95.5281ZM4 89.7522L4.54173 81.7706L-4 81.1908V89.7522H4ZM4 82.5684H-4V91.1298L4.54173 90.55L4 82.5684ZM4 76.792L4.54173 68.8104L-4 68.2306V76.792H4ZM4 69.6082H-4V78.1696L4.54173 77.5898L4 69.6082ZM4 63.832L4.54212 55.8504L-4 55.2702V63.832H4ZM4 56.6482H-4V65.21L4.54212 64.6298L4 56.6482ZM4 50.8721L4.54212 42.8905L-4 42.3103V50.8721H4ZM4 43.6883H-4V52.2501L4.54212 51.6699L4 43.6883ZM4 37.9121L4.54212 29.9305L-4 29.3503V37.9121H4ZM4 30.7283H-4V39.2899L4.54192 38.7099L4 30.7283ZM4 24.9522L4.54192 16.9705L-4 16.3906V24.9522H4ZM4 17.7684H-4V26.3299L4.54192 25.75L4 17.7684ZM1.53025 4.62991C1.40558 4.68407 1.27961 4.7354 1.15242 4.78385L6.84758 19.7359C7.20416 19.6001 7.55678 19.4564 7.90524 19.305L1.53025 4.62991ZM0.968962 5.40919C1.62796 4.70753 2.55271 4.18968 3.62954 4.04183L5.80596 19.8931C8.51249 19.5215 10.891 18.2162 12.6317 16.3627L0.968962 5.40919ZM6.88816 -1.84065C6.29403 0.67231 4.71911 2.78418 2.63332 4.05692L10.9674 17.715C16.6666 14.2374 20.8724 8.55108 22.4589 1.84065L6.88816 -1.84065ZM14.6735 8H484V-8H14.6735V8ZM476 0V120H492V0H476ZM484 112H14.6066V128H484V112ZM1.15243 115.489C3.89986 116.536 6.08514 118.94 6.85169 121.965L22.3615 118.035C20.3235 109.992 14.5011 103.453 6.84757 100.537L1.15243 115.489ZM12 108.013V102.712H-4V108.013H12ZM3.45827 110.694C3.71738 110.711 3.97791 110.72 4.23946 110.72V94.72C4.34006 94.72 4.44089 94.7234 4.54173 94.7303L3.45827 110.694ZM4.23946 110.72C10.7382 110.72 15.78 105.4 15.78 99.12H-0.220003C-0.220003 96.8161 1.65149 94.72 4.23946 94.72V110.72ZM15.78 99.12C15.78 92.8397 10.7382 87.52 4.23946 87.52V103.52C1.65148 103.52 -0.220003 101.424 -0.220003 99.12H15.78ZM4.23946 87.52C3.97791 87.52 3.71738 87.5289 3.45827 87.5465L4.54173 103.51C4.44089 103.517 4.34006 103.52 4.23946 103.52V87.52ZM12 95.5281V89.7522H-4V95.5281H12ZM4.23946 81.7603C4.34006 81.7603 4.44089 81.7637 4.54173 81.7706L3.45827 97.7338C3.71738 97.7514 3.97791 97.7603 4.23946 97.7603V81.7603ZM-0.220003 86.1603C-0.220003 83.8564 1.65149 81.7603 4.23946 81.7603V97.7603C10.7382 97.7603 15.78 92.4407 15.78 86.1603H-0.220003ZM4.23946 90.5603C1.65148 90.5603 -0.220003 88.4642 -0.220003 86.1603H15.78C15.78 79.8799 10.7382 74.5603 4.23946 74.5603V90.5603ZM4.54173 90.55C4.44089 90.5569 4.34006 90.5603 4.23946 90.5603V74.5603C3.97791 74.5603 3.71738 74.5692 3.45827 74.5868L4.54173 90.55ZM12 82.5684V76.792H-4V82.5684H12ZM3.45827 84.7736C3.71738 84.7912 3.97791 84.8001 4.23946 84.8001V68.8001C4.34006 68.8001 4.44089 68.8035 4.54173 68.8104L3.45827 84.7736ZM4.23946 84.8001C10.7382 84.8001 15.78 79.4805 15.78 73.2001H-0.220003C-0.220003 70.8962 1.65149 68.8001 4.23946 68.8001V84.8001ZM15.78 73.2001C15.78 66.9197 10.7382 61.6001 4.23946 61.6001V77.6001C1.65148 77.6001 -0.220003 75.504 -0.220003 73.2001H15.78ZM4.23946 61.6001C3.97791 61.6001 3.71738 61.609 3.45827 61.6266L4.54173 77.5898C4.44089 77.5967 4.34006 77.6001 4.23946 77.6001V61.6001ZM12 69.6082V63.832H-4V69.6082H12ZM4.23946 55.8401C4.3398 55.8401 4.44076 55.8435 4.54212 55.8504L3.45788 71.8136C3.71751 71.8313 3.97816 71.8401 4.23946 71.8401V55.8401ZM-0.220003 60.2401C-0.220003 57.9362 1.65149 55.8401 4.23946 55.8401V71.8401C10.7382 71.8401 15.78 66.5205 15.78 60.2401H-0.220003ZM4.23946 64.6401C1.65148 64.6401 -0.220003 62.5441 -0.220003 60.2401H15.78C15.78 53.9598 10.7382 48.6401 4.23946 48.6401V64.6401ZM4.54212 64.6298C4.44076 64.6367 4.3398 64.6401 4.23946 64.6401V48.6401C3.97816 48.6401 3.71751 48.649 3.45788 48.6666L4.54212 64.6298ZM12 56.6482V50.8721H-4V56.6482H12ZM3.45788 58.8537C3.71751 58.8713 3.97816 58.8802 4.23946 58.8802V42.8802C4.3398 42.8802 4.44076 42.8836 4.54212 42.8905L3.45788 58.8537ZM4.23946 58.8802C10.7382 58.8802 15.78 53.5606 15.78 47.2802H-0.220003C-0.220003 44.9762 1.65149 42.8802 4.23946 42.8802V58.8802ZM15.78 47.2802C15.78 40.9998 10.7382 35.6802 4.23946 35.6802V51.6802C1.65148 51.6802 -0.220003 49.5841 -0.220003 47.2802H15.78ZM4.23946 35.6802C3.97816 35.6802 3.71751 35.689 3.45788 35.7067L4.54212 51.6699C4.44076 51.6768 4.3398 51.6802 4.23946 51.6802V35.6802ZM12 43.6883V37.9121H-4V43.6883H12ZM4.23946 29.9202C4.3398 29.9202 4.44076 29.9236 4.54212 29.9305L3.45788 45.8937C3.71751 45.9114 3.97816 45.9202 4.23946 45.9202V29.9202ZM-0.220003 34.3202C-0.220003 32.0163 1.65148 29.9202 4.23946 29.9202V45.9202C10.7382 45.9202 15.78 40.6006 15.78 34.3202H-0.220003ZM4.23946 38.7202C1.65148 38.7202 -0.220003 36.6241 -0.220003 34.3202H15.78C15.78 28.0398 10.7382 22.7202 4.23946 22.7202V38.7202ZM4.54192 38.7099C4.44096 38.7168 4.34006 38.7202 4.23946 38.7202V22.7202C3.97791 22.7202 3.71732 22.7291 3.45808 22.7467L4.54192 38.7099ZM12 30.7283V24.9522H-4V30.7283H12ZM3.45808 32.9338C3.71732 32.9514 3.97791 32.9603 4.23946 32.9603V16.9603C4.34006 16.9603 4.44096 16.9637 4.54192 16.9705L3.45808 32.9338ZM4.23946 32.9603C10.7382 32.9603 15.78 27.6406 15.78 21.3603H-0.220003C-0.220003 19.0563 1.65148 16.9603 4.23946 16.9603V32.9603ZM15.78 21.3603C15.78 15.0799 10.7382 9.76025 4.23946 9.76025V25.7603C1.65148 25.7603 -0.220003 23.6642 -0.220003 21.3603H15.78ZM4.23946 9.76025C3.97791 9.76025 3.71732 9.76913 3.45808 9.78673L4.54192 25.75C4.44096 25.7568 4.34006 25.7603 4.23946 25.7603V9.76025ZM12 17.7684V12.2599H-4V17.7684H12Z" fill="#EEEEEE" mask="url(#path-1-inside-1_802_19197)"/>
</g>
<path d="M50 5V9.58333H56V5H50ZM50 18.75V27.9167H56V18.75H50ZM50 37.0833V46.25H56V37.0833H50ZM50 55.4167V64.5833H56V55.4167H50ZM50 73.75V82.9167H56V73.75H50ZM50 92.0833V101.25H56V92.0833H50ZM50 110.417V115H56V110.417H50ZM47 5V9.58333H59V5H47ZM47 18.75V27.9167H59V18.75H47ZM47 37.0833V46.25H59V37.0833H47ZM47 55.4167V64.5833H59V55.4167H47ZM47 73.75V82.9167H59V73.75H47ZM47 92.0833V101.25H59V92.0833H47ZM47 110.417V115H59V110.417H47Z" fill="#EEEEEE" mask="url(#path-3-inside-2_802_19197)"/>
<defs>
<filter id="filter0_d_802_19197" x="0" y="0" width="488" height="128" filterUnits="userSpaceOnUse" color-interpolation-filters="sRGB">
<feFlood flood-opacity="0" result="BackgroundImageFix"/>
<feColorMatrix in="SourceAlpha" type="matrix" values="0 0 0 0 0 0 0 0 0 0 0 0 0 0 0 0 0 0 127 0" result="hardAlpha"/>
<feOffset dy="4"/>
<feGaussianBlur stdDeviation="2"/>
<feComposite in2="hardAlpha" operator="out"/>
<feColorMatrix type="matrix" values="0 0 0 0 0 0 0 0 0 0 0 0 0 0 0 0 0 0 0.25 0"/>
<feBlend mode="normal" in2="BackgroundImageFix" result="effect1_dropShadow_802_19197"/>
<feBlend mode="normal" in="SourceGraphic" in2="effect1_dropShadow_802_19197" result="shape"/>
</filter>
</defs>
</svg>
