<svg width="332" height="217" viewBox="0 0 332 217" fill="none" xmlns="http://www.w3.org/2000/svg">
<g filter="url(#filter0_d_461_14684)">
<mask id="path-1-inside-1_461_14684" fill="white">
<path fill-rule="evenodd" clip-rule="evenodd" d="M4.5 12.7036V18.8004C7.15489 18.8938 9.26964 20.5599 9.26964 22.6017C9.26964 24.6434 7.15489 26.3096 4.5 26.403V32.4997C7.15489 32.5931 9.26964 34.2593 9.26964 36.301C9.26964 38.3428 7.15489 40.0089 4.5 40.1023V46.1993C7.15489 46.2927 9.26964 47.9589 9.26964 50.0006C9.26964 52.0424 7.15489 53.7085 4.5 53.8019V59.8988C7.15489 59.9921 9.26964 61.6583 9.26964 63.7C9.26964 65.7418 7.15489 67.408 4.5 67.5013V73.5982C7.15489 73.6915 9.26964 75.3577 9.26964 77.3994C9.26964 79.4412 7.15489 81.1074 4.5 81.2007V87.2976C7.15489 87.3909 9.26964 89.0571 9.26964 91.0989C9.26964 93.1406 7.15489 94.8068 4.5 94.9001V101.482C7.15489 101.575 9.26964 103.241 9.26964 105.283C9.26964 107.325 7.15489 108.991 4.5 109.084V115.181C7.15489 115.275 9.26964 116.941 9.26964 118.983C9.26964 119.006 9.26937 119.029 9.26883 119.052C9.26937 119.075 9.26964 119.098 9.26964 119.121C9.26964 121.162 7.15489 122.829 4.5 122.922V128.88C7.15489 128.974 9.26964 130.64 9.26964 132.682L9.26954 132.706L9.26928 132.727L9.26882 132.751C9.26936 132.774 9.26964 132.797 9.26964 132.82C9.26964 134.862 7.15489 136.528 4.5 136.622V142.58C7.15489 142.673 9.26964 144.339 9.26964 146.381C9.26964 146.391 9.26958 146.402 9.26948 146.412C9.26934 146.425 9.26913 146.438 9.26882 146.45C9.26937 146.474 9.26964 146.497 9.26964 146.52C9.26964 148.562 7.15489 150.228 4.5 150.321V156.418C7.15489 156.511 9.26964 158.177 9.26964 160.219C9.26964 162.261 7.15489 163.927 4.5 164.02V170.117C7.15489 170.211 9.26964 171.877 9.26964 173.919C9.26964 175.96 7.15489 177.627 4.5 177.72V184.301C7.15489 184.395 9.26964 186.061 9.26964 188.103C9.26964 190.145 7.15489 191.811 4.5 191.904V198.174C5.73893 198.02 7.00899 197.94 8.30268 197.94C17.3237 197.94 25.1954 201.816 29.3795 207.568H324.5V0H30.9795C27.488 7.18268 18.6517 12.2829 8.30268 12.2829C7.75398 12.2829 7.20954 12.2685 6.66992 12.2403C6.02073 12.5113 5.28391 12.676 4.5 12.7036Z"/>
</mask>
<path fill-rule="evenodd" clip-rule="evenodd" d="M4.5 12.7036V18.8004C7.15489 18.8938 9.26964 20.5599 9.26964 22.6017C9.26964 24.6434 7.15489 26.3096 4.5 26.403V32.4997C7.15489 32.5931 9.26964 34.2593 9.26964 36.301C9.26964 38.3428 7.15489 40.0089 4.5 40.1023V46.1993C7.15489 46.2927 9.26964 47.9589 9.26964 50.0006C9.26964 52.0424 7.15489 53.7085 4.5 53.8019V59.8988C7.15489 59.9921 9.26964 61.6583 9.26964 63.7C9.26964 65.7418 7.15489 67.408 4.5 67.5013V73.5982C7.15489 73.6915 9.26964 75.3577 9.26964 77.3994C9.26964 79.4412 7.15489 81.1074 4.5 81.2007V87.2976C7.15489 87.3909 9.26964 89.0571 9.26964 91.0989C9.26964 93.1406 7.15489 94.8068 4.5 94.9001V101.482C7.15489 101.575 9.26964 103.241 9.26964 105.283C9.26964 107.325 7.15489 108.991 4.5 109.084V115.181C7.15489 115.275 9.26964 116.941 9.26964 118.983C9.26964 119.006 9.26937 119.029 9.26883 119.052C9.26937 119.075 9.26964 119.098 9.26964 119.121C9.26964 121.162 7.15489 122.829 4.5 122.922V128.88C7.15489 128.974 9.26964 130.64 9.26964 132.682L9.26954 132.706L9.26928 132.727L9.26882 132.751C9.26936 132.774 9.26964 132.797 9.26964 132.82C9.26964 134.862 7.15489 136.528 4.5 136.622V142.58C7.15489 142.673 9.26964 144.339 9.26964 146.381C9.26964 146.391 9.26958 146.402 9.26948 146.412C9.26934 146.425 9.26913 146.438 9.26882 146.45C9.26937 146.474 9.26964 146.497 9.26964 146.52C9.26964 148.562 7.15489 150.228 4.5 150.321V156.418C7.15489 156.511 9.26964 158.177 9.26964 160.219C9.26964 162.261 7.15489 163.927 4.5 164.02V170.117C7.15489 170.211 9.26964 171.877 9.26964 173.919C9.26964 175.96 7.15489 177.627 4.5 177.72V184.301C7.15489 184.395 9.26964 186.061 9.26964 188.103C9.26964 190.145 7.15489 191.811 4.5 191.904V198.174C5.73893 198.02 7.00899 197.94 8.30268 197.94C17.3237 197.94 25.1954 201.816 29.3795 207.568H324.5V0H30.9795C27.488 7.18268 18.6517 12.2829 8.30268 12.2829C7.75398 12.2829 7.20954 12.2685 6.66992 12.2403C6.02073 12.5113 5.28391 12.676 4.5 12.7036Z" fill="white"/>
<path d="M4.5 18.8004H-3.5V26.5241L4.21888 26.7955L4.5 18.8004ZM4.5 12.7036L4.21888 4.7085L-3.5 4.97991V12.7036H4.5ZM4.5 26.403L4.21888 18.4079L-3.5 18.6793V26.403H4.5ZM4.5 32.4997H-3.5V40.2234L4.21888 40.4948L4.5 32.4997ZM4.5 40.1023L4.21888 32.1072L-3.5 32.3786V40.1023H4.5ZM4.5 46.1993H-3.5V53.923L4.21888 54.1944L4.5 46.1993ZM4.5 53.8019L4.21888 45.8068L-3.5 46.0782V53.8019H4.5ZM4.5 59.8988H-3.5V67.6224L4.21888 67.8938L4.5 59.8988ZM4.5 67.5013L4.21887 59.5063L-3.5 59.7777V67.5013H4.5ZM4.5 73.5982H-3.5V81.3218L4.21887 81.5932L4.5 73.5982ZM4.5 81.2007L4.21887 73.2057L-3.5 73.4771V81.2007H4.5ZM4.5 87.2976H-3.5V95.0212L4.21887 95.2926L4.5 87.2976ZM4.5 94.9001L4.21887 86.9051L-3.5 87.1765V94.9001H4.5ZM4.5 101.482H-3.5V109.205L4.21887 109.477L4.5 101.482ZM4.5 109.084L4.21887 101.089L-3.5 101.361V109.084H4.5ZM4.5 115.181H-3.5V122.905L4.21887 123.176L4.5 115.181ZM9.26883 119.052L1.27102 118.864L1.26664 119.052L1.27102 119.239L9.26883 119.052ZM4.5 122.922L4.21887 114.927L-3.5 115.198V122.922H4.5ZM4.5 128.88H-3.5V136.604L4.21887 136.876L4.5 128.88ZM9.26964 132.682L17.2696 132.715L17.2696 132.698V132.682H9.26964ZM9.26954 132.706L17.269 132.801L17.2693 132.77L17.2695 132.739L9.26954 132.706ZM9.26928 132.727L17.2678 132.883L17.2684 132.853L17.2687 132.822L9.26928 132.727ZM9.26882 132.751L1.27034 132.595L1.267 132.767L1.27102 132.938L9.26882 132.751ZM4.5 136.622L4.21887 128.626L-3.5 128.898V136.622H4.5ZM4.5 142.58H-3.5V150.304L4.21887 150.575L4.5 142.58ZM9.26948 146.412L1.26991 146.329L1.26991 146.329L9.26948 146.412ZM9.26882 146.45L1.27103 146.262L1.26661 146.451L1.27103 146.639L9.26882 146.45ZM4.5 150.321L4.21887 142.326L-3.5 142.597V150.321H4.5ZM4.5 156.418H-3.5V164.141L4.21887 164.413L4.5 156.418ZM4.5 164.02L4.21887 156.025L-3.5 156.297V164.02H4.5ZM4.5 170.117H-3.5V177.841L4.21887 178.112L4.5 170.117ZM4.5 177.72L4.21887 169.725L-3.5 169.996V177.72H4.5ZM4.5 184.301H-3.5V192.025L4.21887 192.297L4.5 184.301ZM4.5 191.904L4.21887 183.909L-3.5 184.18V191.904H4.5ZM4.5 198.174H-3.5V207.226L5.48368 206.113L4.5 198.174ZM29.3795 207.568L22.9102 212.274L25.3063 215.568H29.3795V207.568ZM324.5 207.568V215.568H332.5V207.568H324.5ZM324.5 0H332.5V-8H324.5V0ZM30.9795 0V-8H25.9732L23.7845 -3.49747L30.9795 0ZM6.66992 12.2403L7.08779 4.25122L5.26892 4.15609L3.58813 4.85772L6.66992 12.2403ZM12.5 18.8004V12.7036H-3.5V18.8004H12.5ZM4.21888 26.7955C4.00505 26.788 3.5101 26.7156 2.90509 26.2351C2.28692 25.7442 1.26964 24.5243 1.26964 22.6017H17.2696C17.2696 14.4359 9.66201 10.977 4.78112 10.8054L4.21888 26.7955ZM1.26964 22.6017C1.26964 20.6791 2.28692 19.4592 2.90509 18.9683C3.51011 18.4878 4.00505 18.4154 4.21888 18.4079L4.78112 34.398C9.662 34.2264 17.2696 30.7675 17.2696 22.6017H1.26964ZM12.5 32.4997V26.403H-3.5V32.4997H12.5ZM4.21888 40.4948C4.00505 40.4873 3.5101 40.4149 2.90509 39.9344C2.28692 39.4435 1.26964 38.2236 1.26964 36.301H17.2696C17.2696 28.1353 9.66201 24.6763 4.78112 24.5047L4.21888 40.4948ZM1.26964 36.301C1.26964 34.3784 2.28692 33.1586 2.90509 32.6676C3.51011 32.1871 4.00505 32.1147 4.21888 32.1072L4.78112 48.0974C9.66201 47.9257 17.2696 44.4668 17.2696 36.301H1.26964ZM12.5 46.1993V40.1023H-3.5V46.1993H12.5ZM4.21888 54.1944C4.00505 54.1869 3.51011 54.1145 2.90509 53.634C2.28692 53.1431 1.26964 51.9232 1.26964 50.0006H17.2696C17.2696 41.8349 9.66201 38.3759 4.78112 38.2043L4.21888 54.1944ZM1.26964 50.0006C1.26964 48.078 2.28692 46.8582 2.90509 46.3672C3.51011 45.8867 4.00505 45.8144 4.21888 45.8068L4.78112 61.797C9.66201 61.6253 17.2696 58.1664 17.2696 50.0006H1.26964ZM12.5 59.8988V53.8019H-3.5V59.8988H12.5ZM17.2696 63.7C17.2696 55.5343 9.66201 52.0753 4.78112 51.9037L4.21888 67.8938C4.00505 67.8863 3.51011 67.8139 2.90509 67.3334C2.28692 66.8425 1.26964 65.6226 1.26964 63.7H17.2696ZM4.78113 75.4964C9.66199 75.3247 17.2696 71.8658 17.2696 63.7H1.26964C1.26964 61.7774 2.28693 60.5576 2.9051 60.0666C3.51011 59.5861 4.00506 59.5138 4.21887 59.5063L4.78113 75.4964ZM12.5 73.5982V67.5013H-3.5V73.5982H12.5ZM4.21887 81.5932C4.00506 81.5857 3.51011 81.5133 2.9051 81.0329C2.28693 80.5419 1.26964 79.3221 1.26964 77.3994H17.2696C17.2696 69.2337 9.66199 65.7747 4.78113 65.6031L4.21887 81.5932ZM1.26964 77.3994C1.26964 75.4768 2.28693 74.257 2.9051 73.766C3.51011 73.2855 4.00506 73.2132 4.21887 73.2057L4.78113 89.1958C9.66199 89.0242 17.2696 85.5652 17.2696 77.3994H1.26964ZM12.5 87.2976V81.2007H-3.5V87.2976H12.5ZM4.21887 95.2926C4.00506 95.2851 3.51011 95.2128 2.9051 94.7323C2.28693 94.2413 1.26964 93.0215 1.26964 91.0989H17.2696C17.2696 82.9331 9.66199 79.4742 4.78113 79.3025L4.21887 95.2926ZM1.26964 91.0989C1.26964 89.1762 2.28693 87.9564 2.9051 87.4655C3.51011 86.985 4.00506 86.9126 4.21887 86.9051L4.78113 102.895C9.66199 102.724 17.2696 99.2646 17.2696 91.0989H1.26964ZM12.5 101.482V94.9001H-3.5V101.482H12.5ZM4.21887 109.477C4.00506 109.469 3.51011 109.397 2.9051 108.916C2.28693 108.425 1.26964 107.206 1.26964 105.283H17.2696C17.2696 97.1172 9.66199 93.6582 4.78113 93.4866L4.21887 109.477ZM1.26964 105.283C1.26964 103.36 2.28693 102.14 2.9051 101.65C3.51011 101.169 4.00506 101.097 4.21887 101.089L4.78113 117.079C9.66199 116.908 17.2696 113.449 17.2696 105.283H1.26964ZM12.5 115.181V109.084H-3.5V115.181H12.5ZM17.2696 118.983C17.2696 110.817 9.66199 107.358 4.78113 107.186L4.21887 123.176C4.00506 123.169 3.51011 123.096 2.9051 122.616C2.28693 122.125 1.26964 120.905 1.26964 118.983H17.2696ZM17.2666 119.239C17.2686 119.154 17.2696 119.068 17.2696 118.983H1.26964C1.26964 118.943 1.2701 118.904 1.27102 118.864L17.2666 119.239ZM17.2696 119.121C17.2696 119.035 17.2686 118.95 17.2666 118.864L1.27102 119.239C1.2701 119.2 1.26964 119.16 1.26964 119.121H17.2696ZM4.78113 130.917C9.66199 130.745 17.2696 127.287 17.2696 119.121H1.26964C1.26964 117.198 2.28693 115.978 2.9051 115.487C3.51011 115.007 4.00506 114.934 4.21887 114.927L4.78113 130.917ZM12.5 128.88V122.922H-3.5V128.88H12.5ZM17.2696 132.682C17.2696 124.516 9.66201 121.057 4.78113 120.885L4.21887 136.876C4.00505 136.868 3.5101 136.796 2.90509 136.315C2.28692 135.824 1.26964 134.604 1.26964 132.682H17.2696ZM17.2695 132.739L17.2696 132.715L1.26971 132.649L1.2696 132.673L17.2695 132.739ZM17.2687 132.822L17.269 132.801L1.27009 132.612L1.26984 132.633L17.2687 132.822ZM17.2673 132.907L17.2678 132.883L1.2708 132.572L1.27034 132.595L17.2673 132.907ZM17.2696 132.82C17.2696 132.734 17.2686 132.649 17.2666 132.564L1.27102 132.938C1.2701 132.899 1.26964 132.86 1.26964 132.82H17.2696ZM4.78113 144.617C9.66201 144.445 17.2696 140.986 17.2696 132.82H1.26964C1.26964 130.898 2.28692 129.678 2.90509 129.187C3.5101 128.706 4.00505 128.634 4.21887 128.626L4.78113 144.617ZM12.5 142.58V136.622H-3.5V142.58H12.5ZM4.21887 150.575C4.00505 150.567 3.5101 150.495 2.90509 150.015C2.28692 149.524 1.26964 148.304 1.26964 146.381H17.2696C17.2696 138.215 9.66201 134.756 4.78113 134.585L4.21887 150.575ZM1.26964 146.381C1.26964 146.364 1.26973 146.346 1.26991 146.329L17.269 146.495C17.2694 146.457 17.2696 146.419 17.2696 146.381H1.26964ZM1.26991 146.329C1.27013 146.307 1.27051 146.285 1.27103 146.262L17.2666 146.638C17.2677 146.59 17.2686 146.542 17.269 146.495L1.26991 146.329ZM1.27103 146.639C1.2701 146.599 1.26964 146.559 1.26964 146.52H17.2696C17.2696 146.434 17.2686 146.348 17.2666 146.262L1.27103 146.639ZM1.26964 146.52C1.26964 144.597 2.28692 143.377 2.90509 142.886C3.5101 142.406 4.00505 142.334 4.21887 142.326L4.78113 158.316C9.66201 158.144 17.2696 154.686 17.2696 146.52H1.26964ZM12.5 156.418V150.321H-3.5V156.418H12.5ZM17.2696 160.219C17.2696 152.053 9.66201 148.594 4.78113 148.423L4.21887 164.413C4.00505 164.405 3.5101 164.333 2.90509 163.852C2.28692 163.362 1.26964 162.142 1.26964 160.219H17.2696ZM4.78113 172.015C9.66201 171.844 17.2696 168.385 17.2696 160.219H1.26964C1.26964 158.296 2.28692 157.077 2.90509 156.586C3.5101 156.105 4.00505 156.033 4.21887 156.025L4.78113 172.015ZM12.5 170.117V164.02H-3.5V170.117H12.5ZM4.21887 178.112C4.00505 178.105 3.5101 178.033 2.90509 177.552C2.28692 177.061 1.26964 175.841 1.26964 173.919H17.2696C17.2696 165.753 9.66201 162.294 4.78113 162.122L4.21887 178.112ZM1.26964 173.919C1.26964 171.996 2.28692 170.776 2.90509 170.285C3.5101 169.805 4.00505 169.732 4.21887 169.725L4.78113 185.715C9.66201 185.543 17.2696 182.084 17.2696 173.919H1.26964ZM12.5 184.301V177.72H-3.5V184.301H12.5ZM17.2696 188.103C17.2696 179.937 9.66201 176.478 4.78113 176.306L4.21887 192.297C4.00505 192.289 3.5101 192.217 2.90509 191.736C2.28692 191.245 1.26964 190.025 1.26964 188.103H17.2696ZM4.78113 199.899C9.66201 199.727 17.2696 196.269 17.2696 188.103H1.26964C1.26964 186.18 2.28692 184.96 2.90509 184.469C3.5101 183.989 4.00505 183.917 4.21887 183.909L4.78113 199.899ZM12.5 198.174V191.904H-3.5V198.174H12.5ZM5.48368 206.113C6.39594 206 7.33747 205.94 8.30268 205.94V189.94C6.6805 189.94 5.08192 190.04 3.51632 190.234L5.48368 206.113ZM8.30268 205.94C15.1916 205.94 20.4662 208.914 22.9102 212.274L35.8489 202.862C29.9246 194.717 19.4559 189.94 8.30268 189.94V205.94ZM324.5 199.568H29.3795V215.568H324.5V199.568ZM316.5 0V207.568H332.5V0H316.5ZM30.9795 8H324.5V-8H30.9795V8ZM23.7845 -3.49747C21.9214 0.335299 16.3125 4.28286 8.30268 4.28286V20.2829C20.9908 20.2829 33.0546 14.0301 38.1745 3.49747L23.7845 -3.49747ZM8.30268 4.28286C7.89332 4.28286 7.48822 4.27217 7.08779 4.25122L6.25205 20.2294C6.93086 20.2649 7.61464 20.2829 8.30268 20.2829V4.28286ZM3.58813 4.85772C3.8532 4.74707 4.06765 4.71382 4.21888 4.7085L4.78112 20.6986C6.50018 20.6382 8.18825 20.2755 9.75171 19.6229L3.58813 4.85772Z" fill="#EEEEEE" mask="url(#path-1-inside-1_461_14684)"/>
</g>
<path d="M41.5 9V13.75H47.5V9H41.5ZM41.5 23.25V32.75H47.5V23.25H41.5ZM41.5 42.25V51.75H47.5V42.25H41.5ZM41.5 61.25V70.75H47.5V61.25H41.5ZM41.5 80.25V89.75H47.5V80.25H41.5ZM41.5 99.25V108.75H47.5V99.25H41.5ZM41.5 118.25V127.75H47.5V118.25H41.5ZM41.5 137.25V146.75H47.5V137.25H41.5ZM41.5 156.25V165.75H47.5V156.25H41.5ZM41.5 175.25V184.75H47.5V175.25H41.5ZM41.5 194.25V199H47.5V194.25H41.5ZM38.5 9V13.75H50.5V9H38.5ZM38.5 23.25V32.75H50.5V23.25H38.5ZM38.5 42.25V51.75H50.5V42.25H38.5ZM38.5 61.25V70.75H50.5V61.25H38.5ZM38.5 80.25V89.75H50.5V80.25H38.5ZM38.5 99.25V108.75H50.5V99.25H38.5ZM38.5 118.25V127.75H50.5V118.25H38.5ZM38.5 137.25V146.75H50.5V137.25H38.5ZM38.5 156.25V165.75H50.5V156.25H38.5ZM38.5 175.25V184.75H50.5V175.25H38.5ZM38.5 194.25V199H50.5V194.25H38.5Z" fill="#EEEEEE" mask="url(#path-3-inside-2_461_14684)"/>
<defs>
<filter id="filter0_d_461_14684" x="0.5" y="0" width="328" height="215.567" filterUnits="userSpaceOnUse" color-interpolation-filters="sRGB">
<feFlood flood-opacity="0" result="BackgroundImageFix"/>
<feColorMatrix in="SourceAlpha" type="matrix" values="0 0 0 0 0 0 0 0 0 0 0 0 0 0 0 0 0 0 127 0" result="hardAlpha"/>
<feOffset dy="4"/>
<feGaussianBlur stdDeviation="2"/>
<feComposite in2="hardAlpha" operator="out"/>
<feColorMatrix type="matrix" values="0 0 0 0 0 0 0 0 0 0 0 0 0 0 0 0 0 0 0.25 0"/>
<feBlend mode="normal" in2="BackgroundImageFix" result="effect1_dropShadow_461_14684"/>
<feBlend mode="normal" in="SourceGraphic" in2="effect1_dropShadow_461_14684" result="shape"/>
</filter>
</defs>
</svg>
